<svg id="Layer_1" data-name="Layer 1" xmlns="http://www.w3.org/2000/svg" xmlns:xlink="http://www.w3.org/1999/xlink" width="293.12" height="365.01" viewBox="0 0 293.12 365.01"><defs><style>.cls-1,.cls-10,.cls-11,.cls-12,.cls-13,.cls-14,.cls-15,.cls-16,.cls-17,.cls-18,.cls-5,.cls-6,.cls-7,.cls-8,.cls-9{fill:none;}.cls-2{fill:#434343;}.cls-19,.cls-3{opacity:0.2;}.cls-4{clip-path:url(#clip-path);}.cls-10,.cls-11,.cls-12,.cls-13,.cls-14,.cls-15,.cls-16,.cls-17,.cls-18,.cls-5,.cls-6,.cls-7,.cls-8,.cls-9{stroke:#434343;stroke-miterlimit:10;}.cls-5{stroke-width:0.7px;}.cls-6{stroke-width:0.69px;}.cls-7{stroke-width:0.67px;}.cls-8{stroke-width:0.66px;}.cls-9{stroke-width:0.64px;}.cls-10{stroke-width:0.62px;}.cls-11{stroke-width:0.61px;}.cls-12{stroke-width:0.59px;}.cls-13{stroke-width:0.58px;}.cls-14{stroke-width:0.56px;}.cls-15{stroke-width:0.55px;}.cls-16{stroke-width:0.53px;}.cls-17{stroke-width:0.51px;}.cls-18{stroke-width:0.5px;}.cls-19{fill:url(#_10_ppp_20_2);}</style><clipPath id="clip-path"><rect class="cls-1" x="192.83" y="216.09" width="100.29" height="101.33" transform="translate(485.94 533.51) rotate(180)"/></clipPath><pattern id="_10_ppp_20_2" data-name="10 ppp 20% 2" width="28.8" height="28.8" patternTransform="translate(-43.86 -16.14) rotate(135)" patternUnits="userSpaceOnUse" viewBox="0 0 28.8 28.8"><rect class="cls-1" width="28.8" height="28.8"/><path class="cls-2" d="M28.8,30.24a1.44,1.44,0,1,0-1.44-1.44A1.44,1.44,0,0,0,28.8,30.24Z"/><path class="cls-2" d="M14.4,30.24A1.44,1.44,0,1,0,13,28.8,1.44,1.44,0,0,0,14.4,30.24Z"/><path class="cls-2" d="M28.8,15.84a1.44,1.44,0,1,0-1.44-1.44A1.44,1.44,0,0,0,28.8,15.84Z"/><path class="cls-2" d="M14.4,15.84A1.44,1.44,0,1,0,13,14.4,1.44,1.44,0,0,0,14.4,15.84Z"/><path class="cls-2" d="M7.2,23A1.44,1.44,0,1,0,5.76,21.6,1.44,1.44,0,0,0,7.2,23Z"/><path class="cls-2" d="M21.6,23a1.44,1.44,0,1,0-1.44-1.44A1.44,1.44,0,0,0,21.6,23Z"/><path class="cls-2" d="M7.2,8.64A1.44,1.44,0,1,0,5.76,7.2,1.44,1.44,0,0,0,7.2,8.64Z"/><path class="cls-2" d="M21.6,8.64A1.44,1.44,0,1,0,20.16,7.2,1.44,1.44,0,0,0,21.6,8.64Z"/><path class="cls-2" d="M0,30.24A1.44,1.44,0,0,0,1.44,28.8,1.45,1.45,0,0,0,0,27.36,1.44,1.44,0,0,0-1.44,28.8,1.43,1.43,0,0,0,0,30.24Z"/><path class="cls-2" d="M0,15.84A1.44,1.44,0,0,0,1.44,14.4,1.45,1.45,0,0,0,0,13,1.44,1.44,0,0,0-1.44,14.4,1.43,1.43,0,0,0,0,15.84Z"/><path class="cls-2" d="M28.8,1.44A1.45,1.45,0,0,0,30.24,0,1.44,1.44,0,0,0,28.8-1.44,1.43,1.43,0,0,0,27.36,0,1.44,1.44,0,0,0,28.8,1.44Z"/><path class="cls-2" d="M14.4,1.44A1.45,1.45,0,0,0,15.84,0,1.44,1.44,0,0,0,14.4-1.44,1.43,1.43,0,0,0,13,0,1.44,1.44,0,0,0,14.4,1.44Z"/><path class="cls-2" d="M0,1.44A1.45,1.45,0,0,0,1.44,0,1.44,1.44,0,0,0,0-1.44,1.43,1.43,0,0,0-1.44,0,1.44,1.44,0,0,0,0,1.44Z"/></pattern></defs><title>small bg 3</title><g class="cls-3"><g class="cls-4"><circle class="cls-5" cx="293.12" cy="216.07" r="98.53"/><circle class="cls-6" cx="293.12" cy="216.07" r="91.42"/><circle class="cls-7" cx="293.12" cy="216.07" r="84.3"/><circle class="cls-8" cx="293.12" cy="216.07" r="77.18"/><circle class="cls-9" cx="293.12" cy="216.07" r="70.06"/><circle class="cls-10" cx="293.12" cy="216.07" r="62.94"/><circle class="cls-11" cx="293.12" cy="216.07" r="55.82" transform="translate(62.29 497.72) rotate(-87.06)"/><circle class="cls-12" cx="293.12" cy="216.07" r="48.7" transform="translate(66.3 500.96) rotate(-87.87)"/><circle class="cls-13" cx="293.12" cy="216.07" r="41.58" transform="translate(69.27 503.3) rotate(-88.46)"/><circle class="cls-14" cx="293.12" cy="216.07" r="34.46" transform="translate(71.55 505.06) rotate(-88.92)"/><circle class="cls-15" cx="293.12" cy="216.07" r="27.34" transform="translate(73.35 506.43) rotate(-89.27)"/><circle class="cls-16" cx="293.12" cy="216.07" r="20.22" transform="translate(74.81 507.54) rotate(-89.56)"/><circle class="cls-17" cx="293.12" cy="216.07" r="13.1" transform="translate(76.03 508.44) rotate(-89.8)"/><path class="cls-18" d="M287.14,216.07a6,6,0,1,1,6,6A6,6,0,0,1,287.14,216.07Z"/></g><path class="cls-2" d="M292.9,117.66h-.07a98.53,98.53,0,0,0-98.54,98.53H292.9Z"/></g><circle class="cls-19" cx="152.65" cy="218.06" r="72.3"/></svg>